<svg width="32" height="13" viewBox="0 0 32 13" fill="none" xmlns="http://www.w3.org/2000/svg">
<path d="M0.384108 11.703C0.513948 12.3433 1.50481 13.0636 2.3747 12.8351C3.01193 12.6677 3.8087 11.2593 4.52481 9.6777C4.51684 9.79109 4.51639 9.87793 4.5257 9.93238C4.65598 10.6946 5.94419 11.2413 6.54598 11.1081C6.86947 11.0366 7.1841 10.7185 7.48234 10.2559C7.7234 10.6703 8.59772 10.8426 9.14588 10.7882C9.42506 10.7603 9.57972 10.5916 9.64575 10.4512C9.94398 9.81539 11.4653 6.90056 13.0695 4.22286C12.4291 6.40516 11.8021 8.76519 11.8326 9.16205C11.8739 9.6975 12.9285 9.93238 13.5565 9.86984C13.8356 9.84194 13.9624 9.7434 14.028 9.60301C14.2841 9.05631 15.5151 6.77727 16.9088 4.56033C16.3598 6.33361 15.8311 8.14514 15.8586 8.50196C15.918 9.27544 17.3236 9.95488 17.9343 9.89413C18.5693 9.83114 19.269 8.84528 19.8987 7.66279C20.2333 8.83628 21.4098 10.0143 22.2527 10.1344C25.067 10.5349 28.477 5.4211 29.3008 3.17266C29.311 3.14476 29.3199 3.11686 29.3274 3.08896C30.5256 5.34056 31.2032 8.35168 29.8029 9.43698C29.1271 9.96073 28.1407 9.21065 28.4797 7.72398C28.5266 7.51835 28.3755 7.35277 28.15 7.43736C27.7423 7.58945 27.2433 7.94221 26.77 8.36967C26.6624 8.46686 26.6065 8.5861 26.6096 8.72019C26.6499 10.5772 28.8227 11.3165 30.4756 9.80909C32.2468 8.19374 32.7679 4.56168 30.4299 0.154786C30.3732 0.0476956 30.2779 -0.0269975 30.133 0.00989908C29.8259 0.0881918 28.742 0.508003 28.2444 0.85897C28.1704 0.911166 28.1269 0.994408 28.1145 1.0853C27.4596 3.62306 24.2198 9.41223 21.8051 9.06846C21.4054 9.01176 21.3012 8.67565 21.358 8.16224C21.4165 7.80138 21.5037 7.43241 21.6132 7.0612C23.8834 7.19888 26.5383 3.61721 26.5383 1.99152C26.5396 0.958861 24.9727 0 23.9481 0C23.0583 0 21.3442 2.45587 20.3897 4.90949C19.7064 6.43935 18.8108 8.36832 18.349 8.41422C18.2967 8.41917 18.2573 8.36337 18.248 8.24459C18.1704 7.24028 19.713 2.49097 20.0511 1.71209C20.1384 1.51096 20.0556 1.27248 19.8779 1.17934C19.577 1.02141 19.1112 0.831973 18.7004 0.718583C18.4523 0.65019 18.2418 0.797326 18.0911 0.986309C17.8669 1.26843 16.0846 3.88314 14.6492 6.24407C15.193 4.09822 15.9605 1.78138 16.1502 1.19869C16.2118 1.01016 16.1174 0.844572 15.9756 0.781128C15.6849 0.65064 15.2475 0.460307 14.7809 0.304622C14.534 0.222279 14.3045 0.366716 14.1627 0.563348C13.9584 0.846372 11.9793 3.97223 10.3969 6.70708V6.70663C10.7199 5.53584 11.8105 1.98747 11.8163 1.96902C11.8566 1.83898 11.8189 1.69544 11.7174 1.64505C11.4289 1.50196 10.8843 1.25718 10.3322 1.0835C10.0769 1.00341 9.96968 1.1015 9.901 1.33773C9.68873 2.06801 9.38385 3.06107 9.06036 4.11712C8.66286 5.12817 7.4912 9.43878 6.82117 9.58726C6.75248 9.60256 6.72501 9.54766 6.70507 9.43068C6.54554 8.49746 7.62636 4.03298 7.86875 3.11506C7.93257 2.87343 7.91129 2.74745 7.70745 2.64171C7.41188 2.48827 6.764 2.32763 6.57301 2.29659C6.38335 2.26599 6.29339 2.35283 6.23002 2.54271C6.13873 2.81674 6.03371 3.13351 5.83873 3.68741C5.83873 3.68741 4.39542 2.08376 3.18609 2.40683C1.78886 2.78074 0.0180734 9.89908 0.384108 11.703ZM24.7537 1.39352C25.1911 2.82484 23.0946 5.67307 21.8764 6.27557C22.6697 4.13422 24.0505 2.08511 24.7537 1.39352ZM4.31654 3.7243C4.69188 3.62576 5.46737 4.45324 5.53828 4.53648C4.74771 6.84837 2.91976 11.1806 2.49301 11.2926C2.45889 11.3016 2.43363 11.2674 2.42211 11.2089C2.24884 10.3558 3.78743 3.86334 4.31654 3.7243Z" fill="#A8AFC9"/>
</svg>
